<?xml version="1.0" encoding="UTF-8" standalone="no"?>
<svg
   xmlns:dc="http://purl.org/dc/elements/1.1/"
   xmlns:cc="http://creativecommons.org/ns#"
   xmlns:rdf="http://www.w3.org/1999/02/22-rdf-syntax-ns#"
   xmlns:svg="http://www.w3.org/2000/svg"
   xmlns="http://www.w3.org/2000/svg"
   viewBox="0 0 483.77954 362.83469"
   height="362.83469"
   width="483.77954"
   xml:space="preserve"
   id="svg2"
   version="1.1"><metadata
     id="metadata8"><rdf:RDF><cc:Work
         rdf:about=""><dc:format>image/svg+xml</dc:format><dc:type
           rdf:resource="http://purl.org/dc/dcmitype/StillImage" /><dc:title></dc:title></cc:Work></rdf:RDF></metadata><defs
     id="defs6"><clipPath
       id="clipPath22"
       clipPathUnits="userSpaceOnUse"><path
         id="path20"
         d="M 0,0 H 363 V 273 H 0 Z" /></clipPath></defs><g
     id="layer3"><path
       id="path14"
       style="fill:#2f2a85;fill-opacity:1;fill-rule:nonzero;stroke:none"
       d="m 285.512,0 h 77.699 v 272.125 h -77.699 z"
       transform="matrix(1.3333333,0,0,1.3333333,0,1.3070867e-5)" /></g><g
     style="opacity:0.08"
     id="layer4"><g
       style="opacity:1"
       id="g16"
       transform="matrix(1.3333333,0,0,1.3333333,0,1.3070867e-5)"><g
         style=""
         id="g18" /><g
         style=""
         id="g164"><g
           style="opacity:1"
           id="g162"
           clip-path="url(#clipPath22)"><g
             style=""
             id="g160"><g
               style=""
               id="g26"><path
                 id="path24"
                 style="fill:none;stroke:#ffffff;stroke-width:0.78639501;stroke-linecap:butt;stroke-linejoin:miter;stroke-miterlimit:4;stroke-dasharray:none;stroke-opacity:0.99952195"
                 d="m 348.488,24.379 -0.004,10.566 c 0,0 -10.652,0.301 -10.504,17.981 0.149,17.679 10.485,17.992 10.485,17.992 l 0.019,11.168 h -10.632 c 0,0 -0.34,-11.445 -18.446,-11.039 -18.105,0.41 -17.609,11.043 -17.609,11.043 h -10.582 l 0.004,-10.336 c 0,0 10.597,-0.117 10.808,-18.082 0.211,-17.965 -10.82,-17.797 -10.82,-17.797 l 0.008,-11.109 10.617,0.004 c 0,0 0.414,10.964 18.383,10.847 17.965,-0.113 17.629,-10.847 17.629,-10.847 l 10.758,-0.008" /></g><g
               style=""
               id="g30"><path
                 id="path28"
                 style="fill:none;stroke:#ffffff;stroke-width:0.39319801;stroke-linecap:butt;stroke-linejoin:miter;stroke-miterlimit:4;stroke-dasharray:none;stroke-opacity:0.99952195"
                 d="M 348.301,24.879 291.395,81.977" /></g><g
               style=""
               id="g34"><path
                 id="path32"
                 style="fill:none;stroke:#ffffff;stroke-width:0.39319801;stroke-linecap:butt;stroke-linejoin:miter;stroke-miterlimit:4;stroke-dasharray:none;stroke-opacity:0.99952195"
                 d="M 348.488,81.879 291.391,24.973" /></g><g
               style=""
               id="g38"><path
                 id="path36"
                 style="fill:none;stroke:#ffffff;stroke-width:3.14558101;stroke-linecap:butt;stroke-linejoin:miter;stroke-miterlimit:4;stroke-dasharray:none;stroke-opacity:0.99952195"
                 d="m 337.793,82.465 c 0,0 0.102,-11.149 -18.023,-11.117 -18.129,0.027 -18.028,11.113 -18.028,11.113" /></g><g
               style=""
               id="g42"><path
                 id="path40"
                 style="fill:none;stroke:#ffffff;stroke-width:3.14558101;stroke-linecap:butt;stroke-linejoin:miter;stroke-miterlimit:4;stroke-dasharray:none;stroke-opacity:0.99952195"
                 d="m 348.863,34.777 c 0,0 -11.051,-0.101 -11.019,18.028 0.027,18.125 10.996,18.023 10.996,18.023" /></g><g
               style=""
               id="g46"><path
                 id="path44"
                 style="fill:none;stroke:#ffffff;stroke-width:3.14558101;stroke-linecap:butt;stroke-linejoin:miter;stroke-miterlimit:4;stroke-dasharray:none;stroke-opacity:0.99952195"
                 d="m 337.926,24.395 c 0,0 0.101,11.218 -18.028,11.187 -18.125,-0.027 -18.023,-11.199 -18.023,-11.199" /></g><g
               style=""
               id="g50"><path
                 id="path48"
                 style="fill:none;stroke:#ffffff;stroke-width:3.14558101;stroke-linecap:butt;stroke-linejoin:miter;stroke-miterlimit:4;stroke-dasharray:none;stroke-opacity:0.99952195"
                 d="m 290.84,71.664 c 0,0 11.078,0.102 11.047,-18.023 -0.028,-18.129 -11.051,-18.028 -11.051,-18.028" /></g><g
               style=""
               id="g54"
               transform="scale(-1,1)"><path
                 id="path52"
                 style="fill:none;stroke:#ffffff;stroke-width:0.947456;stroke-linecap:butt;stroke-linejoin:miter;stroke-miterlimit:4;stroke-dasharray:none;stroke-opacity:0.99952195"
                 d="m -312.809,53.426 c 0,3.886 -3.152,7.039 -7.039,7.039 -3.886,0 -7.039,-3.153 -7.039,-7.039 0,-3.887 3.153,-7.039 7.039,-7.039 3.887,0 7.039,3.152 7.039,7.039 z" /></g><g
               style=""
               id="g58"><path
                 id="path56"
                 style="fill:none;stroke:#ffffff;stroke-width:0.442038;stroke-linecap:butt;stroke-linejoin:miter;stroke-miterlimit:4;stroke-dasharray:none;stroke-opacity:0.99952195"
                 d="m 327.719,173.434 4.101,2.14 4.176,-2.832 c 0.211,-1.832 1.082,-2.879 1.684,-4.129 1.261,-0.433 2.886,-1.164 4.996,-0.187 3.586,1.664 6.945,7.086 3.972,14.668 l 4.368,2.41 4.101,-2.899 c -2.515,-4.476 -2.957,-11.48 2.43,-15.113 1.293,-0.871 3.769,-0.765 4.91,-0.094 1.363,0.801 2,3.512 2.008,3.836 1.535,0.844 3.008,1.555 4.441,2.188 l 3.942,-2.445 c -6.364,-4.317 -9.223,-7.692 -11.973,-10.84 l -10.789,6.984 -11.82,-5.969 c -2.758,4.758 -7.586,10.664 -10.547,12.282 z" /></g><g
               style=""
               id="g62"><path
                 id="path60"
                 style="fill:none;stroke:#ffffff;stroke-width:0.442038;stroke-linecap:butt;stroke-linejoin:miter;stroke-miterlimit:4;stroke-dasharray:none;stroke-opacity:0.99952195"
                 d="m 338.148,158.293 c 0,0 -0.035,2.676 0,2.738 0.04,0.063 0.04,0.063 0.04,0.063 l 11.898,6.027 10.789,-6.984 v -2.899 l -10.961,7.063 z" /></g><g
               style=""
               id="g66"><path
                 id="path64"
                 style="fill:none;stroke:#ffffff;stroke-width:0.442038;stroke-linecap:butt;stroke-linejoin:miter;stroke-miterlimit:4;stroke-dasharray:none;stroke-opacity:0.99952195"
                 d="m 338.062,158.141 2.157,-1.391" /></g><g
               style=""
               id="g70"><path
                 id="path68"
                 style="fill:none;stroke:#ffffff;stroke-width:0.442038;stroke-linecap:butt;stroke-linejoin:miter;stroke-miterlimit:4;stroke-dasharray:none;stroke-opacity:0.99952195"
                 d="m 360.973,157.055 -2.477,-1.301" /></g><g
               style=""
               id="g74"><path
                 id="path72"
                 style="fill:none;stroke:#ffffff;stroke-width:0.442038;stroke-linecap:butt;stroke-linejoin:miter;stroke-miterlimit:4;stroke-dasharray:none;stroke-opacity:0.99952195"
                 d="m 342.801,144.844 v 2.605 l 6.312,3.211 5.684,-3.644 0.015,-2.809 -5.863,3.781 z" /></g><g
               style=""
               id="g78"><path
                 id="path76"
                 style="fill:none;stroke:#ffffff;stroke-width:0.442038;stroke-linecap:butt;stroke-linejoin:miter;stroke-miterlimit:4;stroke-dasharray:none;stroke-opacity:0.99952195"
                 d="m 342.711,144.691 1.203,-0.769" /></g><g
               style=""
               id="g82"><path
                 id="path80"
                 style="fill:none;stroke:#ffffff;stroke-width:0.442038;stroke-linecap:butt;stroke-linejoin:miter;stroke-miterlimit:4;stroke-dasharray:none;stroke-opacity:0.99952195"
                 d="m 354.922,144.023 -1.442,-0.738" /></g><g
               style=""
               id="g86"><path
                 id="path84"
                 style="fill:none;stroke:#ffffff;stroke-width:0.442038;stroke-linecap:butt;stroke-linejoin:miter;stroke-miterlimit:4;stroke-dasharray:none;stroke-opacity:0.99952195"
                 d="m 347.121,114.02 3.895,71.484" /></g><g
               style=""
               id="g90"><path
                 id="path88"
                 style="fill:none;stroke:#ffffff;stroke-width:0.442038;stroke-linecap:butt;stroke-linejoin:miter;stroke-miterlimit:4;stroke-dasharray:none;stroke-opacity:0.99952195"
                 d="m 343.594,145.258 c 1.578,-7.008 1.582,-14.91 1.594,-21.352 0.011,-5.894 0.378,-9.527 -0.93,-11.136 l 2.863,1.25 2.645,-1.524 c -0.914,1.238 -0.391,4.957 0.058,10.434 0.547,6.722 1.992,15.402 4.086,21.859 l -4.961,3.199 z" /></g><g
               style=""
               id="g94"><path
                 id="path92"
                 style="fill:none;stroke:#ffffff;stroke-width:0.442038;stroke-linecap:butt;stroke-linejoin:miter;stroke-miterlimit:4;stroke-dasharray:none;stroke-opacity:0.99952195"
                 d="m 344.25,111.758 c 0.219,-0.723 0.684,-1.664 2.504,-2.934 1.453,0.571 2.211,1.692 2.887,2.602 -0.703,0.801 -1.676,1.222 -2.618,1.695 -1.906,-0.836 -2.386,-1.047 -2.773,-1.363 z" /></g><g
               style=""
               id="g98"><path
                 id="path96"
                 style="fill:none;stroke:#ffffff;stroke-width:0.221019;stroke-linecap:butt;stroke-linejoin:miter;stroke-miterlimit:4;stroke-dasharray:none;stroke-opacity:0.99952195"
                 d="m 344.828,112.969 -0.008,-0.891" /></g><g
               style=""
               id="g102"><path
                 id="path100"
                 style="fill:none;stroke:#ffffff;stroke-width:0.221019;stroke-linecap:butt;stroke-linejoin:miter;stroke-miterlimit:4;stroke-dasharray:none;stroke-opacity:0.99952195"
                 d="m 349.156,112.805 0.004,-1.02" /></g><g
               style=""
               id="g106"><path
                 id="path104"
                 style="fill:none;stroke:#ffffff;stroke-width:0.221019;stroke-linecap:butt;stroke-linejoin:miter;stroke-miterlimit:4;stroke-dasharray:none;stroke-opacity:0.99952195"
                 d="m 346.754,108.824 c 0.258,1.485 0.308,2.906 0.269,4.297" /></g><g
               style=""
               id="g110"><path
                 id="path108"
                 style="fill:none;stroke:#ffffff;stroke-width:1.768152;stroke-linecap:butt;stroke-linejoin:miter;stroke-miterlimit:4;stroke-dasharray:none;stroke-opacity:0.99952195"
                 d="m 355.078,182.844 c 0,0 -5.187,-9.793 1.731,-14.84 6.464,-4.715 12.175,5.633 12.175,5.633" /></g><g
               style=""
               id="g114"><path
                 id="path112"
                 style="fill:none;stroke:#ffffff;stroke-width:1.768152;stroke-linecap:butt;stroke-linejoin:miter;stroke-miterlimit:4;stroke-dasharray:none;stroke-opacity:0.99952195"
                 d="m 331.598,175.707 c 0.793,-1.582 4.82,-9.988 11.086,-7.238 6.261,2.746 5.082,12.371 3.804,14.789" /></g><g
               style=""
               id="g118"><path
                 id="path116"
                 style="fill:none;stroke:#ffffff;stroke-width:0.221019;stroke-linecap:butt;stroke-linejoin:miter;stroke-miterlimit:4;stroke-dasharray:none;stroke-opacity:0.99952195"
                 d="m 344.387,112.715 0.437,-0.274" /></g><g
               style=""
               id="g122"><path
                 id="path120"
                 style="fill:none;stroke:#ffffff;stroke-width:0.221019;stroke-linecap:butt;stroke-linejoin:miter;stroke-miterlimit:4;stroke-dasharray:none;stroke-opacity:0.99952195"
                 d="m 349.098,112.242 0.523,0.215" /></g><g
               style=""
               id="g126"><path
                 id="path124"
                 style="fill:none;stroke:#ffffff;stroke-width:0.442038;stroke-linecap:butt;stroke-linejoin:miter;stroke-miterlimit:4;stroke-dasharray:none;stroke-opacity:0.99952195"
                 d="m 339.441,158.961 c 1.516,-3.445 2.582,-7.559 3.84,-11.266 l 5.832,2.965 5.524,-3.539 c 1.543,3.539 2.886,7.266 5.054,10.875 l -9.777,6.305 z" /></g><g
               style=""
               id="g130"
               transform="scale(-1,1)"><path
                 id="path128"
                 style="fill:none;stroke:#ffffff;stroke-width:1.02192295;stroke-linecap:butt;stroke-linejoin:miter;stroke-miterlimit:4;stroke-dasharray:none;stroke-opacity:0.99952195"
                 d="m -281,215.379 h -46.547 v 5.879 H -281 Z" /></g><g
               style=""
               id="g134"
               transform="scale(-1,1)"><path
                 id="path132"
                 style="fill:none;stroke:#ffffff;stroke-width:1.02192295;stroke-linecap:butt;stroke-linejoin:miter;stroke-miterlimit:4;stroke-dasharray:none;stroke-opacity:0.99952195"
                 d="m -291.266,173.02 h -25.691 v 6.156 h 25.691 z" /></g><g
               style=""
               id="g138"
               transform="scale(-1,1)"><path
                 id="path136"
                 style="fill:none;stroke:#ffffff;stroke-width:1.16791201;stroke-linecap:butt;stroke-linejoin:miter;stroke-miterlimit:4;stroke-dasharray:none;stroke-opacity:0.99952195"
                 d="m -308.172,63.223 c -0.422,-0.043 -1.25,0.175 -1.254,-0.25 -0.015,-2.555 2.817,-8.051 5.246,-8.403 2.532,-0.371 4.992,5.61 5.473,8.457 0.062,0.371 -0.707,0.161 -1.066,0.196 -2.789,0.25 -5.614,0.269 -8.399,0 z" /></g><g
               style=""
               id="g142"
               transform="scale(-1,1)"><path
                 id="path140"
                 style="fill:none;stroke:#ffffff;stroke-width:1.16791201;stroke-linecap:butt;stroke-linejoin:miter;stroke-miterlimit:4;stroke-dasharray:none;stroke-opacity:0.99952195"
                 d="m -330.621,258.855 h -15.531 c 7.601,-9.41 15.527,-23.191 20.488,-37.523 h 43.226 c 5.047,13.117 10.77,25.867 20.415,37.523 h -15.719 c -0.867,-9.414 -7.305,-25.328 -25.57,-25.902 -18.262,-0.578 -26.422,14.172 -27.309,25.902 z" /></g><g
               style=""
               id="g146"
               transform="scale(-1,1)"><path
                 id="path144"
                 style="fill:none;stroke:#ffffff;stroke-width:1.16791201;stroke-linecap:butt;stroke-linejoin:miter;stroke-miterlimit:4;stroke-dasharray:none;stroke-opacity:0.99952195"
                 d="m -323.488,215.289 h 39.07 c -2.965,-10.68 -5.832,-21.508 -8.394,-36.035 l -22.301,0.004 c -2.282,13.883 -5.297,24.703 -8.375,36.031 z" /></g><g
               style=""
               id="g150"
               transform="scale(-1,1)"><path
                 id="path148"
                 style="fill:none;stroke:#ffffff;stroke-width:1.16791201;stroke-linecap:butt;stroke-linejoin:miter;stroke-miterlimit:4;stroke-dasharray:none;stroke-opacity:0.99952195"
                 d="m -314.082,172.863 h 20.23 c -5.066,-35.961 -7.531,-104.015 -4.648,-106.621 l -10.605,0.055 c 2.007,1.676 1.226,54.574 -4.977,106.566 z" /></g><g
               style=""
               id="g154"
               transform="scale(-1,1)"><path
                 id="path152"
                 style="fill:none;stroke:#ffffff;stroke-width:0.583956;stroke-linecap:butt;stroke-linejoin:miter;stroke-miterlimit:4;stroke-dasharray:none;stroke-opacity:0.99952195"
                 d="m -299.773,63.223 h -8.398 v 2.906 h 8.398 z" /></g><g
               style=""
               id="g158"
               transform="scale(-1)"><path
                 id="path156"
                 style="fill:none;stroke:#ffffff;stroke-width:4.67164898;stroke-linecap:butt;stroke-linejoin:miter;stroke-miterlimit:4;stroke-dasharray:none;stroke-opacity:0.99952195"
                 d="m -277.766,-259.438 c 0,9.387 -5.007,18.063 -13.14,22.758 -8.129,4.692 -18.145,4.692 -26.278,0 -8.128,-4.695 -13.136,-13.371 -13.136,-22.758" /></g></g></g></g></g></g><g
     transform="matrix(1.3333333,0,0,1.3333333,0,1.3070867e-5)"
     id="g10"><g
       id="g12"><g
         transform="matrix(1,1,-1,1,0,0)"
         id="g166"><path
           id="path168"
           style="fill:#fffffa;fill-opacity:1;fill-rule:nonzero;stroke:#ffffff;stroke-width:3.25506091;stroke-linecap:butt;stroke-linejoin:miter;stroke-miterlimit:4;stroke-dasharray:none;stroke-opacity:1"
           d="m 193.779,-178.982 c 0,6.847 -5.552,12.4 -12.4,12.4 -6.848,0 -12.4,-5.553 -12.4,-12.4 0,-6.848 5.552,-12.401 12.4,-12.401 6.848,0 12.4,5.553 12.4,12.401 z" /></g><g
         transform="matrix(1,1,1,-1,0,0)"
         id="g170"><path
           id="path172"
           style="fill:#fffffa;fill-opacity:1;fill-rule:nonzero;stroke:#ffffff;stroke-width:0.82669502;stroke-linecap:butt;stroke-linejoin:miter;stroke-miterlimit:4;stroke-dasharray:none;stroke-opacity:1"
           d="m 165.26,120.99 -10.676,10.617 c 1.055,5.247 -0.354,11.319 -4.857,15.811 -4.344,4.328 -10.504,5.871 -15.707,4.762 l -10.635,10.685 c 11.801,5.922 26.39,3.793 36.033,-5.842 9.644,-9.636 11.766,-24.156 5.842,-36.033 z" /></g><g
         transform="matrix(-1,1,1,1,0,0)"
         id="g174"><path
           id="path176"
           style="fill:#fffffa;fill-opacity:1;fill-rule:nonzero;stroke:#ffffff;stroke-width:0.82669502;stroke-linecap:butt;stroke-linejoin:miter;stroke-miterlimit:4;stroke-dasharray:none;stroke-opacity:1"
           d="m -162.863,239.371 10.675,-10.617 c -1.054,-5.246 0.352,-11.32 4.858,-15.811 4.34,-4.332 10.502,-5.873 15.705,-4.759 l 10.637,-10.688 c -11.801,-5.922 -26.391,-3.793 -36.037,5.842 -9.643,9.635 -11.764,24.158 -5.838,36.033 z" /></g><g
         transform="matrix(1,1,-1,1,0,0)"
         id="g178"><path
           id="path180"
           style="fill:#fffffa;fill-opacity:1;fill-rule:nonzero;stroke:#ffffff;stroke-width:3.25506091;stroke-linecap:butt;stroke-linejoin:miter;stroke-miterlimit:4;stroke-dasharray:none;stroke-opacity:1"
           d="m 327.689,-45.072 c 0.002,6.849 -5.55,12.402 -12.398,12.402 -6.848,0 -12.4,-5.553 -12.402,-12.402 0,-6.848 5.552,-12.401 12.402,-12.399 6.848,0 12.398,5.551 12.398,12.399 z" /></g><g
         transform="matrix(-1,1,1,1,0,0)"
         id="g182"><path
           id="path184"
           style="fill:#fffffa;fill-opacity:1;fill-rule:nonzero;stroke:#ffffff;stroke-width:0.82669502;stroke-linecap:butt;stroke-linejoin:miter;stroke-miterlimit:4;stroke-dasharray:none;stroke-opacity:1"
           d="m -61.189,257.295 -10.676,10.621 c 1.056,5.244 -0.354,11.314 -4.86,15.809 -4.341,4.33 -10.504,5.875 -15.705,4.759 l -10.636,10.688 c 11.802,5.92 26.39,3.793 36.033,-5.842 9.646,-9.635 11.765,-24.156 5.844,-36.035 z" /></g><g
         transform="matrix(1,1,1,-1,0,0)"
         id="g186"><path
           id="path188"
           style="fill:#fffffa;fill-opacity:1;fill-rule:nonzero;stroke:#ffffff;stroke-width:0.82669502;stroke-linecap:butt;stroke-linejoin:miter;stroke-miterlimit:4;stroke-dasharray:none;stroke-opacity:1"
           d="m 299.172,-12.922 -10.676,10.617 c 1.055,5.246 -0.353,11.319 -4.857,15.811 -4.342,4.33 -10.504,5.875 -15.707,4.762 l -10.635,10.685 c 11.801,5.922 26.389,3.791 36.033,-5.842 9.643,-9.634 11.766,-24.156 5.842,-36.033 z" /></g></g></g></svg>