<?xml version="1.0" encoding="UTF-8" standalone="no"?>
<!-- Created with Inkscape (http://www.inkscape.org/) -->

<svg
   xmlns:dc="http://purl.org/dc/elements/1.1/"
   xmlns:cc="http://creativecommons.org/ns#"
   xmlns:rdf="http://www.w3.org/1999/02/22-rdf-syntax-ns#"
   xmlns:svg="http://www.w3.org/2000/svg"
   xmlns="http://www.w3.org/2000/svg"
   xmlns:sodipodi="http://sodipodi.sourceforge.net/DTD/sodipodi-0.dtd"
   xmlns:inkscape="http://www.inkscape.org/namespaces/inkscape"
   version="1.1"
   id="svg978"
   xml:space="preserve"
   width="16cm"
   height="9cm"
   viewBox="0 0 604.7244 340.1575"
   sodipodi:docname="pattern-6.svg"
   inkscape:version="0.92.3 (2405546, 2018-03-11)"><metadata
     id="metadata984"><rdf:RDF><cc:Work
         rdf:about=""><dc:format>image/svg+xml</dc:format><dc:type
           rdf:resource="http://purl.org/dc/dcmitype/StillImage" /><dc:title></dc:title></cc:Work></rdf:RDF></metadata><defs
     id="defs982" /><sodipodi:namedview
     pagecolor="#ffffff"
     bordercolor="#666666"
     borderopacity="1"
     objecttolerance="10"
     gridtolerance="10"
     guidetolerance="10"
     inkscape:pageopacity="0"
     inkscape:pageshadow="2"
     inkscape:window-width="1366"
     inkscape:window-height="706"
     id="namedview980"
     showgrid="false"
     units="cm"
     inkscape:zoom="0.31125"
     inkscape:cx="370.48384"
     inkscape:cy="203.67813"
     inkscape:window-x="1272"
     inkscape:window-y="248"
     inkscape:window-maximized="1"
     inkscape:current-layer="g986"
     inkscape:snap-global="true" /><g
     id="g986"
     inkscape:groupmode="layer"
     inkscape:label="pattern-eps-converted-to"
     transform="matrix(1.3333333,0,0,-1.3333333,0,340.15752)"><rect
       style="opacity:1;fill:#2f2a85;fill-opacity:1;fill-rule:nonzero;stroke:none;stroke-width:6.16550589;stroke-linecap:square;stroke-linejoin:round;stroke-miterlimit:4;stroke-dasharray:none;stroke-dashoffset:0;stroke-opacity:1;paint-order:markers stroke fill"
       id="rect531-3"
       width="824.42853"
       height="505.64755"
       x="-130.24564"
       y="-371.66827"
       transform="scale(1,-1)" /><g
       transform="matrix(-1.2661024,1.2661024,-1.2661024,-1.2661024,831.72563,675.55831)"
       id="g1572-0-9-8"
       style="fill:#ffffff;fill-opacity:1;stroke:#fffffe;stroke-opacity:1"><g
         id="g1699-4-3-7"
         transform="matrix(0.9665208,0,0,0.9665208,2.4971357,18.185357)"
         style="fill:#ffffff;fill-opacity:1;stroke:#fffffe;stroke-opacity:1"><circle
           style="opacity:1;fill:#ffffff;fill-opacity:1;stroke:#fffffe;stroke-width:2.95308042;stroke-miterlimit:4;stroke-dasharray:none;stroke-opacity:1"
           id="path835-8-9-6"
           cx="61.191387"
           cy="-597.07635"
           transform="scale(1,-1)"
           r="11.25" /><g
           style="fill:#ffffff;fill-opacity:1;stroke:#fffffe;stroke-opacity:1"
           transform="rotate(-90,9.2428831,589.5627)"
           id="g890-3-7-0-1"><path
             sodipodi:nodetypes="ccscczc"
             inkscape:connector-curvature="0"
             id="path976-5-2-1-8-8"
             d="m -12.893599,588.89793 -9.68554,9.63281 c 0.95747,4.75881 -0.32079,10.26788 -4.4074,14.34341 -3.93989,3.92921 -9.52842,5.32853 -14.24885,4.31871 l -9.64868,9.69554 c 10.706,5.37144 23.94162,3.44081 32.69096,-5.29975 8.7493355,-8.74056 10.6741055,-21.91625 5.29951,-32.69072 z"
             style="fill:#ffffff;fill-opacity:1;stroke:#fffffe;stroke-width:0.75px;stroke-linecap:butt;stroke-linejoin:miter;stroke-opacity:1" /></g><g
           style="fill:#ffffff;fill-opacity:1;stroke:#fffffe;stroke-opacity:1"
           transform="translate(59.462188,-44.434866)"
           id="g890-9-7-8-1"><path
             sodipodi:nodetypes="ccscczc"
             inkscape:connector-curvature="0"
             id="path976-5-27-2-5-0"
             d="m -12.893599,588.89793 -9.68554,9.63281 c 0.95747,4.75881 -0.32079,10.26788 -4.4074,14.34341 -3.93989,3.92921 -9.52842,5.32853 -14.24885,4.31871 l -9.64868,9.69554 c 10.706,5.37144 23.94162,3.44081 32.69096,-5.29975 8.7493355,-8.74056 10.6741055,-21.91625 5.29951,-32.69072 z"
             style="fill:#ffffff;fill-opacity:1;stroke:#fffffe;stroke-width:0.75px;stroke-linecap:butt;stroke-linejoin:miter;stroke-opacity:1" /></g><g
           style="fill:#ffffff;fill-opacity:1;stroke:#fffffe;stroke-opacity:1"
           transform="rotate(-90,9.2462903,509.6799)"
           id="g890-0-7-0-6"><path
             sodipodi:nodetypes="ccscczc"
             inkscape:connector-curvature="0"
             id="path976-9-2-9-2"
             d="m -63.527345,614.23831 9.685546,-9.63281 c -0.957473,-4.75881 0.32079,-10.26788 4.4074,-14.34341 3.939888,-3.92921 9.528418,-5.32853 14.248852,-4.31871 l 9.648673,-9.69554 c -10.705994,-5.37144 -23.941616,-3.44081 -32.690955,5.29975 -8.749339,8.74056 -10.674111,21.91625 -5.299516,32.69072 z"
             style="fill:#ffffff;fill-opacity:1;stroke:#fffffe;stroke-width:0.75px;stroke-linecap:butt;stroke-linejoin:miter;stroke-opacity:1" /></g><g
           style="fill:#ffffff;fill-opacity:1;stroke:#fffffe;stroke-opacity:1"
           transform="translate(139.34153,35.451293)"
           id="g890-6-2-6-6"><path
             sodipodi:nodetypes="ccscczc"
             inkscape:connector-curvature="0"
             id="path976-0-6-3-6"
             d="m -63.527345,614.23831 9.685546,-9.63281 c -0.957473,-4.75881 0.32079,-10.26788 4.4074,-14.34341 3.939888,-3.92921 9.528418,-5.32853 14.248852,-4.31871 l 9.648673,-9.69554 c -10.705994,-5.37144 -23.941616,-3.44081 -32.690955,5.29975 -8.749339,8.74056 -10.674111,21.91625 -5.299516,32.69072 z"
             style="fill:#ffffff;fill-opacity:1;stroke:#fffffe;stroke-width:0.75px;stroke-linecap:butt;stroke-linejoin:miter;stroke-opacity:1" /></g></g></g><g
       transform="matrix(-1.2661024,1.2661024,-1.2661024,-1.2661024,831.72553,930.67373)"
       id="g1572-0-9-1"
       style="fill:#ffffff;fill-opacity:1;stroke:#fffffe;stroke-opacity:1"><g
         id="g1699-4-3-4"
         transform="matrix(0.9665208,0,0,0.9665208,2.4971357,18.185357)"
         style="fill:#ffffff;fill-opacity:1;stroke:#fffffe;stroke-opacity:1"><circle
           style="opacity:1;fill:#ffffff;fill-opacity:1;stroke:#fffffe;stroke-width:2.95308042;stroke-miterlimit:4;stroke-dasharray:none;stroke-opacity:1"
           id="path835-8-9-3"
           cx="61.191387"
           cy="-597.07635"
           transform="scale(1,-1)"
           r="11.25" /><g
           style="fill:#ffffff;fill-opacity:1;stroke:#fffffe;stroke-opacity:1"
           transform="rotate(-90,9.2428831,589.5627)"
           id="g890-3-7-0-4"><path
             sodipodi:nodetypes="ccscczc"
             inkscape:connector-curvature="0"
             id="path976-5-2-1-8-2"
             d="m -12.893599,588.89793 -9.68554,9.63281 c 0.95747,4.75881 -0.32079,10.26788 -4.4074,14.34341 -3.93989,3.92921 -9.52842,5.32853 -14.24885,4.31871 l -9.64868,9.69554 c 10.706,5.37144 23.94162,3.44081 32.69096,-5.29975 8.7493355,-8.74056 10.6741055,-21.91625 5.29951,-32.69072 z"
             style="fill:#ffffff;fill-opacity:1;stroke:#fffffe;stroke-width:0.75px;stroke-linecap:butt;stroke-linejoin:miter;stroke-opacity:1" /></g><g
           style="fill:#ffffff;fill-opacity:1;stroke:#fffffe;stroke-opacity:1"
           transform="translate(59.462188,-44.434866)"
           id="g890-9-7-8-9"><path
             sodipodi:nodetypes="ccscczc"
             inkscape:connector-curvature="0"
             id="path976-5-27-2-5-6"
             d="m -12.893599,588.89793 -9.68554,9.63281 c 0.95747,4.75881 -0.32079,10.26788 -4.4074,14.34341 -3.93989,3.92921 -9.52842,5.32853 -14.24885,4.31871 l -9.64868,9.69554 c 10.706,5.37144 23.94162,3.44081 32.69096,-5.29975 8.7493355,-8.74056 10.6741055,-21.91625 5.29951,-32.69072 z"
             style="fill:#ffffff;fill-opacity:1;stroke:#fffffe;stroke-width:0.75px;stroke-linecap:butt;stroke-linejoin:miter;stroke-opacity:1" /></g><g
           style="fill:#ffffff;fill-opacity:1;stroke:#fffffe;stroke-opacity:1"
           transform="rotate(-90,9.2462903,509.6799)"
           id="g890-0-7-0-4"><path
             sodipodi:nodetypes="ccscczc"
             inkscape:connector-curvature="0"
             id="path976-9-2-9-7"
             d="m -63.527345,614.23831 9.685546,-9.63281 c -0.957473,-4.75881 0.32079,-10.26788 4.4074,-14.34341 3.939888,-3.92921 9.528418,-5.32853 14.248852,-4.31871 l 9.648673,-9.69554 c -10.705994,-5.37144 -23.941616,-3.44081 -32.690955,5.29975 -8.749339,8.74056 -10.674111,21.91625 -5.299516,32.69072 z"
             style="fill:#ffffff;fill-opacity:1;stroke:#fffffe;stroke-width:0.75px;stroke-linecap:butt;stroke-linejoin:miter;stroke-opacity:1" /></g><g
           style="fill:#ffffff;fill-opacity:1;stroke:#fffffe;stroke-opacity:1"
           transform="translate(139.34153,35.451293)"
           id="g890-6-2-6-3"><path
             sodipodi:nodetypes="ccscczc"
             inkscape:connector-curvature="0"
             id="path976-0-6-3-5"
             d="m -63.527345,614.23831 9.685546,-9.63281 c -0.957473,-4.75881 0.32079,-10.26788 4.4074,-14.34341 3.939888,-3.92921 9.528418,-5.32853 14.248852,-4.31871 l 9.648673,-9.69554 c -10.705994,-5.37144 -23.941616,-3.44081 -32.690955,5.29975 -8.749339,8.74056 -10.674111,21.91625 -5.299516,32.69072 z"
             style="fill:#ffffff;fill-opacity:1;stroke:#fffffe;stroke-width:0.75px;stroke-linecap:butt;stroke-linejoin:miter;stroke-opacity:1" /></g></g></g><g
       transform="matrix(-1.2661024,1.2661024,-1.2661024,-1.2661024,1285.5243,930.76195)"
       id="g1572-0-9-0"
       style="fill:#ffffff;fill-opacity:1;stroke:#fffffe;stroke-opacity:1"><g
         id="g1699-4-3-0"
         transform="matrix(0.9665208,0,0,0.9665208,2.4971357,18.185357)"
         style="fill:#ffffff;fill-opacity:1;stroke:#fffffe;stroke-opacity:1"><circle
           style="opacity:1;fill:#ffffff;fill-opacity:1;stroke:#fffffe;stroke-width:2.95308042;stroke-miterlimit:4;stroke-dasharray:none;stroke-opacity:1"
           id="path835-8-9-2"
           cx="61.191387"
           cy="-597.07635"
           transform="scale(1,-1)"
           r="11.25" /><g
           style="fill:#ffffff;fill-opacity:1;stroke:#fffffe;stroke-opacity:1"
           transform="rotate(-90,9.2428831,589.5627)"
           id="g890-3-7-0-3"><path
             sodipodi:nodetypes="ccscczc"
             inkscape:connector-curvature="0"
             id="path976-5-2-1-8-7"
             d="m -12.893599,588.89793 -9.68554,9.63281 c 0.95747,4.75881 -0.32079,10.26788 -4.4074,14.34341 -3.93989,3.92921 -9.52842,5.32853 -14.24885,4.31871 l -9.64868,9.69554 c 10.706,5.37144 23.94162,3.44081 32.69096,-5.29975 8.7493355,-8.74056 10.6741055,-21.91625 5.29951,-32.69072 z"
             style="fill:#ffffff;fill-opacity:1;stroke:#fffffe;stroke-width:0.75px;stroke-linecap:butt;stroke-linejoin:miter;stroke-opacity:1" /></g><g
           style="fill:#ffffff;fill-opacity:1;stroke:#fffffe;stroke-opacity:1"
           transform="translate(59.462188,-44.434866)"
           id="g890-9-7-8-4"><path
             sodipodi:nodetypes="ccscczc"
             inkscape:connector-curvature="0"
             id="path976-5-27-2-5-2"
             d="m -12.893599,588.89793 -9.68554,9.63281 c 0.95747,4.75881 -0.32079,10.26788 -4.4074,14.34341 -3.93989,3.92921 -9.52842,5.32853 -14.24885,4.31871 l -9.64868,9.69554 c 10.706,5.37144 23.94162,3.44081 32.69096,-5.29975 8.7493355,-8.74056 10.6741055,-21.91625 5.29951,-32.69072 z"
             style="fill:#ffffff;fill-opacity:1;stroke:#fffffe;stroke-width:0.75px;stroke-linecap:butt;stroke-linejoin:miter;stroke-opacity:1" /></g><g
           style="fill:#ffffff;fill-opacity:1;stroke:#fffffe;stroke-opacity:1"
           transform="rotate(-90,9.2462903,509.6799)"
           id="g890-0-7-0-3"><path
             sodipodi:nodetypes="ccscczc"
             inkscape:connector-curvature="0"
             id="path976-9-2-9-4"
             d="m -63.527345,614.23831 9.685546,-9.63281 c -0.957473,-4.75881 0.32079,-10.26788 4.4074,-14.34341 3.939888,-3.92921 9.528418,-5.32853 14.248852,-4.31871 l 9.648673,-9.69554 c -10.705994,-5.37144 -23.941616,-3.44081 -32.690955,5.29975 -8.749339,8.74056 -10.674111,21.91625 -5.299516,32.69072 z"
             style="fill:#ffffff;fill-opacity:1;stroke:#fffffe;stroke-width:0.75px;stroke-linecap:butt;stroke-linejoin:miter;stroke-opacity:1" /></g><g
           style="fill:#ffffff;fill-opacity:1;stroke:#fffffe;stroke-opacity:1"
           transform="translate(139.34153,35.451293)"
           id="g890-6-2-6-8"><path
             sodipodi:nodetypes="ccscczc"
             inkscape:connector-curvature="0"
             id="path976-0-6-3-3"
             d="m -63.527345,614.23831 9.685546,-9.63281 c -0.957473,-4.75881 0.32079,-10.26788 4.4074,-14.34341 3.939888,-3.92921 9.528418,-5.32853 14.248852,-4.31871 l 9.648673,-9.69554 c -10.705994,-5.37144 -23.941616,-3.44081 -32.690955,5.29975 -8.749339,8.74056 -10.674111,21.91625 -5.299516,32.69072 z"
             style="fill:#ffffff;fill-opacity:1;stroke:#fffffe;stroke-width:0.75px;stroke-linecap:butt;stroke-linejoin:miter;stroke-opacity:1" /></g></g></g><g
       transform="matrix(-1.2661024,1.2661024,-1.2661024,-1.2661024,1285.6749,675.4077)"
       id="g1572-0-9-2"
       style="fill:#ffffff;fill-opacity:1;stroke:#fffffe;stroke-opacity:1"><g
         id="g1699-4-3-43"
         transform="matrix(0.9665208,0,0,0.9665208,2.4971357,18.185357)"
         style="fill:#ffffff;fill-opacity:1;stroke:#fffffe;stroke-opacity:1"><circle
           style="opacity:1;fill:#ffffff;fill-opacity:1;stroke:#fffffe;stroke-width:2.95308042;stroke-miterlimit:4;stroke-dasharray:none;stroke-opacity:1"
           id="path835-8-9-9"
           cx="61.191387"
           cy="-597.07635"
           transform="scale(1,-1)"
           r="11.25" /><g
           style="fill:#ffffff;fill-opacity:1;stroke:#fffffe;stroke-opacity:1"
           transform="rotate(-90,9.2428831,589.5627)"
           id="g890-3-7-0-8"><path
             sodipodi:nodetypes="ccscczc"
             inkscape:connector-curvature="0"
             id="path976-5-2-1-8-0"
             d="m -12.893599,588.89793 -9.68554,9.63281 c 0.95747,4.75881 -0.32079,10.26788 -4.4074,14.34341 -3.93989,3.92921 -9.52842,5.32853 -14.24885,4.31871 l -9.64868,9.69554 c 10.706,5.37144 23.94162,3.44081 32.69096,-5.29975 8.7493355,-8.74056 10.6741055,-21.91625 5.29951,-32.69072 z"
             style="fill:#ffffff;fill-opacity:1;stroke:#fffffe;stroke-width:0.75px;stroke-linecap:butt;stroke-linejoin:miter;stroke-opacity:1" /></g><g
           style="fill:#ffffff;fill-opacity:1;stroke:#fffffe;stroke-opacity:1"
           transform="translate(59.462188,-44.434866)"
           id="g890-9-7-8-3"><path
             sodipodi:nodetypes="ccscczc"
             inkscape:connector-curvature="0"
             id="path976-5-27-2-5-5"
             d="m -12.893599,588.89793 -9.68554,9.63281 c 0.95747,4.75881 -0.32079,10.26788 -4.4074,14.34341 -3.93989,3.92921 -9.52842,5.32853 -14.24885,4.31871 l -9.64868,9.69554 c 10.706,5.37144 23.94162,3.44081 32.69096,-5.29975 8.7493355,-8.74056 10.6741055,-21.91625 5.29951,-32.69072 z"
             style="fill:#ffffff;fill-opacity:1;stroke:#fffffe;stroke-width:0.75px;stroke-linecap:butt;stroke-linejoin:miter;stroke-opacity:1" /></g><g
           style="fill:#ffffff;fill-opacity:1;stroke:#fffffe;stroke-opacity:1"
           transform="rotate(-90,9.2462903,509.6799)"
           id="g890-0-7-0-40"><path
             sodipodi:nodetypes="ccscczc"
             inkscape:connector-curvature="0"
             id="path976-9-2-9-0"
             d="m -63.527345,614.23831 9.685546,-9.63281 c -0.957473,-4.75881 0.32079,-10.26788 4.4074,-14.34341 3.939888,-3.92921 9.528418,-5.32853 14.248852,-4.31871 l 9.648673,-9.69554 c -10.705994,-5.37144 -23.941616,-3.44081 -32.690955,5.29975 -8.749339,8.74056 -10.674111,21.91625 -5.299516,32.69072 z"
             style="fill:#ffffff;fill-opacity:1;stroke:#fffffe;stroke-width:0.75px;stroke-linecap:butt;stroke-linejoin:miter;stroke-opacity:1" /></g><g
           style="fill:#ffffff;fill-opacity:1;stroke:#fffffe;stroke-opacity:1"
           transform="translate(139.34153,35.451293)"
           id="g890-6-2-6-81"><path
             sodipodi:nodetypes="ccscczc"
             inkscape:connector-curvature="0"
             id="path976-0-6-3-67"
             d="m -63.527345,614.23831 9.685546,-9.63281 c -0.957473,-4.75881 0.32079,-10.26788 4.4074,-14.34341 3.939888,-3.92921 9.528418,-5.32853 14.248852,-4.31871 l 9.648673,-9.69554 c -10.705994,-5.37144 -23.941616,-3.44081 -32.690955,5.29975 -8.749339,8.74056 -10.674111,21.91625 -5.299516,32.69072 z"
             style="fill:#ffffff;fill-opacity:1;stroke:#fffffe;stroke-width:0.75px;stroke-linecap:butt;stroke-linejoin:miter;stroke-opacity:1" /></g></g></g></g></svg>